HIERARCHY
ROOT Root
{
  OFFSET 0.0 0.0 0.0
  CHANNELS 6 Xposition Yposition Zposition Zrotation Yrotation Xrotation
  JOINT Hips
  {
    OFFSET 0.0 100.0 0.0
    CHANNELS 6 Xposition Yposition Zposition Zrotation Yrotation Xrotation
    JOINT Spine1
    {
      OFFSET 5.003913 -0.037094 -0.013727
      CHANNELS 3 Zrotation Yrotation Xrotation
      JOINT Spine2
      {
        OFFSET 7.125363 -1e-06 0.0
        CHANNELS 3 Zrotation Yrotation Xrotation
        JOINT Chest
        {
          OFFSET 7.594027 1e-06 0.0
          CHANNELS 3 Zrotation Yrotation Xrotation
          JOINT Neck1
          {
            OFFSET 26.313086 -0.460272 -0.181672
            CHANNELS 3 Zrotation Yrotation Xrotation
            JOINT Neck2
            {
              OFFSET 8.045911 0.0 0.0
              CHANNELS 3 Zrotation Yrotation Xrotation
              JOINT Head
              {
                OFFSET 6.432774 0.0 0.0
                CHANNELS 3 Zrotation Yrotation Xrotation
                JOINT HeadEnd
                {
                  OFFSET 16.169773 0.06451 0.00362
                  CHANNELS 3 Zrotation Yrotation Xrotation
                }
                JOINT Jaw
                {
                  OFFSET 0.108741 3.12938 0.002639
                  CHANNELS 3 Zrotation Yrotation Xrotation
                }
                JOINT LeftEye
                {
                  OFFSET 4.45173 8.166359 3.206392
                  CHANNELS 3 Zrotation Yrotation Xrotation
                }
                JOINT RightEye
                {
                  OFFSET 4.436895 8.135758 -3.222429
                  CHANNELS 3 Zrotation Yrotation Xrotation
                }
              }
            }
          }
          JOINT LeftShoulder
          {
            OFFSET 23.218927 5.195579 1.621656
            CHANNELS 3 Zrotation Yrotation Xrotation
            JOINT LeftArm
            {
              OFFSET 15.902118 2e-06 -2e-06
              CHANNELS 3 Zrotation Yrotation Xrotation
              JOINT LeftForeArm
              {
                OFFSET 28.739307 0.0 -1e-06
                CHANNELS 3 Zrotation Yrotation Xrotation
                JOINT LeftHand
                {
                  OFFSET 27.093981 -4e-06 0.0
                  CHANNELS 3 Zrotation Yrotation Xrotation
                  JOINT LeftHandThumb1
                  {
                    OFFSET 2.276781 3.380274 0.83384
                    CHANNELS 3 Zrotation Yrotation Xrotation
                    JOINT LeftHandThumb2
                    {
                      OFFSET 4.705309 -1e-06 -1e-06
                      CHANNELS 3 Zrotation Yrotation Xrotation
                      JOINT LeftHandThumb3
                      {
                        OFFSET 2.798515 0.0 3e-06
                        CHANNELS 3 Zrotation Yrotation Xrotation
                        JOINT LeftHandThumbEnd
                        {
                          OFFSET 3.180793 4e-06 -4e-06
                          CHANNELS 3 Zrotation Yrotation Xrotation
                        }
                      }
                    }
                  }
                  JOINT LeftHandIndex1
                  {
                    OFFSET 3.247786 2.352677 0.137192
                    CHANNELS 3 Zrotation Yrotation Xrotation
                    JOINT LeftHandIndex2
                    {
                      OFFSET 6.367095 1e-06 0.0
                      CHANNELS 3 Zrotation Yrotation Xrotation
                      JOINT LeftHandIndex3
                      {
                        OFFSET 3.662364 0.0 0.0
                        CHANNELS 3 Zrotation Yrotation Xrotation
                        JOINT LeftHandIndex4
                        {
                          OFFSET 2.329242 4e-06 -4e-06
                          CHANNELS 3 Zrotation Yrotation Xrotation
                          JOINT LeftHandIndexEnd
                          {
                            OFFSET 2.767823 1e-06 0.0
                            CHANNELS 3 Zrotation Yrotation Xrotation
                          }
                        }
                      }
                    }
                  }
                  JOINT LeftHandMiddle1
                  {
                    OFFSET 3.163612 0.945023 -0.406112
                    CHANNELS 3 Zrotation Yrotation Xrotation
                    JOINT LeftHandMiddle2
                    {
                      OFFSET 6.276789 3e-06 0.0
                      CHANNELS 3 Zrotation Yrotation Xrotation
                      JOINT LeftHandMiddle3
                      {
                        OFFSET 4.35652 -1e-06 4e-06
                        CHANNELS 3 Zrotation Yrotation Xrotation
                        JOINT LeftHandMiddle4
                        {
                          OFFSET 2.996877 0.0 8e-06
                          CHANNELS 3 Zrotation Yrotation Xrotation
                          JOINT LeftHandMiddleEnd
                          {
                            OFFSET 2.323256 3e-06 -4e-06
                            CHANNELS 3 Zrotation Yrotation Xrotation
                          }
                        }
                      }
                    }
                  }
                  JOINT LeftHandRing1
                  {
                    OFFSET 2.882606 -0.309162 0.107445
                    CHANNELS 3 Zrotation Yrotation Xrotation
                    JOINT LeftHandRing2
                    {
                      OFFSET 6.033198 0.0 4e-06
                      CHANNELS 3 Zrotation Yrotation Xrotation
                      JOINT LeftHandRing3
                      {
                        OFFSET 4.350578 3e-06 0.0
                        CHANNELS 3 Zrotation Yrotation Xrotation
                        JOINT LeftHandRing4
                        {
                          OFFSET 2.651321 2e-06 -7e-06
                          CHANNELS 3 Zrotation Yrotation Xrotation
                          JOINT LeftHandRingEnd
                          {
                            OFFSET 1.937663 1e-06 -4e-06
                            CHANNELS 3 Zrotation Yrotation Xrotation
                          }
                        }
                      }
                    }
                  }
                  JOINT LeftHandPinky1
                  {
                    OFFSET 2.865315 -1.525436 0.575687
                    CHANNELS 3 Zrotation Yrotation Xrotation
                    JOINT LeftHandPinky2
                    {
                      OFFSET 5.54936 1e-06 -8e-06
                      CHANNELS 3 Zrotation Yrotation Xrotation
                      JOINT LeftHandPinky3
                      {
                        OFFSET 3.070974 0.0 -4e-06
                        CHANNELS 3 Zrotation Yrotation Xrotation
                        JOINT LeftHandPinky4
                        {
                          OFFSET 1.549672 1e-06 0.0
                          CHANNELS 3 Zrotation Yrotation Xrotation
                          JOINT LeftHandPinkyEnd
                          {
                            OFFSET 1.952123 0.0 0.0
                            CHANNELS 3 Zrotation Yrotation Xrotation
                          }
                        }
                      }
                    }
                  }
                }
              }
            }
          }
          JOINT RightShoulder
          {
            OFFSET 23.161716 5.296122 -1.380114
            CHANNELS 3 Zrotation Yrotation Xrotation
            JOINT RightArm
            {
              OFFSET -16.027195 -2e-06 1.1e-05
              CHANNELS 3 Zrotation Yrotation Xrotation
              JOINT RightForeArm
              {
                OFFSET -28.736639 4e-06 2e-06
                CHANNELS 3 Zrotation Yrotation Xrotation
                JOINT RightHand
                {
                  OFFSET -27.133619 6e-06 0.0
                  CHANNELS 3 Zrotation Yrotation Xrotation
                  JOINT RightHandThumb1
                  {
                    OFFSET -2.274328 -3.351035 -0.83067
                    CHANNELS 3 Zrotation Yrotation Xrotation
                    JOINT RightHandThumb2
                    {
                      OFFSET -4.703594 -3e-06 2e-06
                      CHANNELS 3 Zrotation Yrotation Xrotation
                      JOINT RightHandThumb3
                      {
                        OFFSET -2.794935 -4e-06 -3e-06
                        CHANNELS 3 Zrotation Yrotation Xrotation
                        JOINT RightHandThumbEnd
                        {
                          OFFSET -3.183852 4e-06 1e-06
                          CHANNELS 3 Zrotation Yrotation Xrotation
                        }
                      }
                    }
                  }
                  JOINT RightHandIndex1
                  {
                    OFFSET -3.253496 -2.33755 -0.127667
                    CHANNELS 3 Zrotation Yrotation Xrotation
                    JOINT RightHandIndex2
                    {
                      OFFSET -6.344434 0.0 0.0
                      CHANNELS 3 Zrotation Yrotation Xrotation
                      JOINT RightHandIndex3
                      {
                        OFFSET -3.654871 0.0 -8e-06
                        CHANNELS 3 Zrotation Yrotation Xrotation
                        JOINT RightHandIndex4
                        {
                          OFFSET -2.327586 -1e-06 0.0
                          CHANNELS 3 Zrotation Yrotation Xrotation
                          JOINT RightHandIndexEnd
                          {
                            OFFSET -2.770001 3e-06 8e-06
                            CHANNELS 3 Zrotation Yrotation Xrotation
                          }
                        }
                      }
                    }
                  }
                  JOINT RightHandMiddle1
                  {
                    OFFSET -3.168223 -0.944764 0.411762
                    CHANNELS 3 Zrotation Yrotation Xrotation
                    JOINT RightHandMiddle2
                    {
                      OFFSET -6.266691 -1e-06 -4e-06
                      CHANNELS 3 Zrotation Yrotation Xrotation
                      JOINT RightHandMiddle3
                      {
                        OFFSET -4.348901 0.0 0.0
                        CHANNELS 3 Zrotation Yrotation Xrotation
                        JOINT RightHandMiddle4
                        {
                          OFFSET -3.00024 2e-06 -4e-06
                          CHANNELS 3 Zrotation Yrotation Xrotation
                          JOINT RightHandMiddleEnd
                          {
                            OFFSET -2.321477 -4e-06 -4e-06
                            CHANNELS 3 Zrotation Yrotation Xrotation
                          }
                        }
                      }
                    }
                  }
                  JOINT RightHandRing1
                  {
                    OFFSET -2.885654 0.293261 -0.119232
                    CHANNELS 3 Zrotation Yrotation Xrotation
                    JOINT RightHandRing2
                    {
                      OFFSET -6.032835 -1e-06 -4e-06
                      CHANNELS 3 Zrotation Yrotation Xrotation
                      JOINT RightHandRing3
                      {
                        OFFSET -4.33881 0.0 -4e-06
                        CHANNELS 3 Zrotation Yrotation Xrotation
                        JOINT RightHandRing4
                        {
                          OFFSET -2.654903 -4e-06 -4e-06
                          CHANNELS 3 Zrotation Yrotation Xrotation
                          JOINT RightHandRingEnd
                          {
                            OFFSET -1.935122 0.0 4e-06
                            CHANNELS 3 Zrotation Yrotation Xrotation
                          }
                        }
                      }
                    }
                  }
                  JOINT RightHandPinky1
                  {
                    OFFSET -2.866241 1.503904 -0.60527
                    CHANNELS 3 Zrotation Yrotation Xrotation
                    JOINT RightHandPinky2
                    {
                      OFFSET -5.553177 -2e-06 0.0
                      CHANNELS 3 Zrotation Yrotation Xrotation
                      JOINT RightHandPinky3
                      {
                        OFFSET -3.062664 -1e-06 -4e-06
                        CHANNELS 3 Zrotation Yrotation Xrotation
                        JOINT RightHandPinky4
                        {
                          OFFSET -1.546529 2e-06 4e-06
                          CHANNELS 3 Zrotation Yrotation Xrotation
                          JOINT RightHandPinkyEnd
                          {
                            OFFSET -1.952341 0.0 -4e-06
                            CHANNELS 3 Zrotation Yrotation Xrotation
                          }
                        }
                      }
                    }
                  }
                }
              }
            }
          }
        }
      }
    }
    JOINT LeftLeg
    {
      OFFSET -8.443107 2.567604 10.043214
      CHANNELS 3 Zrotation Yrotation Xrotation
      JOINT LeftShin
      {
        OFFSET 43.229198 1e-06 -1e-06
        CHANNELS 3 Zrotation Yrotation Xrotation
        JOINT LeftFoot
        {
          OFFSET 42.298611 1e-06 1e-06
          CHANNELS 3 Zrotation Yrotation Xrotation
          JOINT LeftToeBase
          {
            OFFSET 14.165858 1e-06 0.0
            CHANNELS 3 Zrotation Yrotation Xrotation
            JOINT LeftToeEnd
            {
              OFFSET 6.7141 -0.234461 0.0
              CHANNELS 3 Zrotation Yrotation Xrotation
            }
          }
        }
      }
    }
    JOINT RightLeg
    {
      OFFSET -8.303923 2.592729 -10.047278
      CHANNELS 3 Zrotation Yrotation Xrotation
      JOINT RightShin
      {
        OFFSET -43.369682 0.0 1e-06
        CHANNELS 3 Zrotation Yrotation Xrotation
        JOINT RightFoot
        {
          OFFSET -42.260784 4e-06 2e-06
          CHANNELS 3 Zrotation Yrotation Xrotation
          JOINT RightToeBase
          {
            OFFSET -14.222245 -2e-06 -1e-06
            CHANNELS 3 Zrotation Yrotation Xrotation
            JOINT RightToeEnd
            {
              OFFSET -6.660062 0.232574 -2e-06
              CHANNELS 3 Zrotation Yrotation Xrotation
            }
          }
        }
      }
    }
  }
}
MOTION
Frames: 4
Frame Time: 0.03333333333333333
0.0 0.0 0.0 0.0 -0.0 0.0 -2.727196 99.321869 11.513998 93.617874 0.59631 86.954926 3.756754 1.904267 0.766975 -9.641703 0.461958 2.022185 18.833437 0.346458 0.626773 22.24201 -0.567034 2.247488 -2.683465 -0.806474 -1.195951 -39.496365 -3.330844 0.062046 6e-06 0.0 0.0 -0.046778 0.015019 -0.000941 -0.126171 -0.078464 -0.018711 -0.106529 0.098391 0.013979 -118.295486 -66.28434 138.441345 23.904171 -54.205166 9.302564 51.803226 -0.234499 0.386843 4.482764 -2.022254 24.236582 17.636631 -26.322714 52.411095 -19.466635 -14.395578 29.410313 -1.4e-05 -8.774799 -3e-06 20.544634 -21.488976 8.125711 -0.609774 -1.795649 -3.889322 -4.807061 -11.046776 -2.937846 3.5e-05 -20.975964 8e-06 -5.019916 -25.033484 -4.031852 7e-06 1e-06 2e-06 -10.634514 -5.686946 -3.565583 10.573276 -17.922918 -3.113899 2e-05 -13.821173 8e-06 -0.501744 -31.181425 -4.026961 -29.252779 -68.632378 26.349745 -13.982687 -7.150169 -2.87504 13.772715 -8.401493 -3.218237 0.347786 -34.211479 0.771666 -0.963011 -17.733353 2.621046 1e-06 -0.0 1e-06 -17.346365 -20.095158 -4.201783 21.757509 -1.638403 3.866412 1.3e-05 -6.338805 5e-06 -1.69754 -22.591675 -6.193975 -2e-06 -3e-06 -1e-06 168.730377 -82.064148 20.464802 25.39257 -36.552853 -17.012386 127.370041 -2.535908 0.611893 44.167957 10.95951 37.134197 22.182158 -20.376007 49.933426 -16.701908 -16.743607 28.476645 -1.8e-05 -12.69066 1.1e-05 26.138367 -16.396469 0.823813 -0.105917 -1.513864 -4.275894 -5.039053 -5.612897 -2.953562 1.5e-05 -11.020611 4e-06 -6.111319 -15.895486 -3.840477 0.0 -1e-06 -0.0 -10.283397 -5.680303 -4.341844 11.028344 -11.302474 -2.372646 -1.384263 -14.238679 -6.32014 -0.625426 -26.924459 -3.827606 10.437284 -63.348953 -10.655277 -13.708556 -7.363497 -3.72094 18.141228 -14.052824 -3.242698 1.6e-05 -18.787409 6e-06 -0.429713 -8.456128 2.555528 -0.0 0.0 0.0 -15.923575 -20.094559 -5.47358 30.419331 -7.19087 1.735905 5e-06 -8.162984 -1e-06 -1.861894 -22.861704 -6.167978 -0.0 -3e-06 -1e-06 160.15947 3.923321 0.235778 17.078934 -0.006302 -0.064388 -80.933731 -8.023434 -3.195856 -8.710019 1.755306 2.048865 -0.999996 -0.0 0.0 2.523243 -6.180012 -6.329827 14.183216 -0.189989 0.398429 -85.05648 -7.537196 -4.195753 -6.263744 0.459282 1.577174 -1.000007 1e-06 0.0 
0.0 0.0 0.0 0.0 -0.0 0.0 -2.508457 99.070511 13.454681 93.88961 0.027809 86.712547 4.011523 1.806589 0.868181 -9.566796 0.504687 2.31054 19.016806 0.186663 0.908855 21.198801 -1.276747 2.275195 -2.68708 -0.828501 -1.054101 -39.509567 -3.480056 0.114193 6e-06 0.0 0.0 -0.047149 0.015449 -0.000269 -0.138016 -0.083714 -0.018426 -0.117887 0.103043 0.015146 -119.377655 -65.712585 139.904282 23.598799 -53.315853 8.761904 51.241577 -0.170291 0.383948 4.765353 -2.523618 24.328182 17.636665 -26.322754 52.41124 -19.466728 -14.395631 29.410458 -1e-06 -8.774861 -2e-06 21.073872 -21.704891 8.617124 -0.609777 -1.79566 -3.889332 -4.807105 -11.046844 -2.937858 2e-06 -20.976116 -1.2e-05 -5.019994 -25.033745 -4.03193 5e-06 -0.0 0.0 -10.634553 -5.686983 -3.565592 10.573307 -17.923004 -3.113919 4e-06 -13.821276 -7e-06 -0.501756 -31.181753 -4.027067 -33.267635 -69.753075 30.969666 -13.982742 -7.150217 -2.87504 13.772771 -8.401513 -3.218254 0.34775 -34.21172 0.771639 -0.963027 -17.733498 2.621035 -4e-06 -1e-06 -2e-06 -17.346458 -20.095259 -4.201781 21.757624 -1.638375 3.86644 2e-06 -6.338847 -2e-06 -1.697592 -22.591898 -6.194071 -1e-06 -4e-06 4e-06 170.710602 -82.548149 18.997084 26.040457 -38.210598 -14.624841 122.154137 -2.683739 0.536011 47.171947 11.253966 40.554535 22.182024 -20.375835 49.933208 -16.701788 -16.74353 28.476496 4e-06 -12.690594 1.2e-05 26.472765 -16.975718 1.162904 -0.105917 -1.513854 -4.275874 -5.039038 -5.612866 -2.953547 -3e-06 -11.020515 -7e-06 -6.111307 -15.895351 -3.840478 1e-06 -0.0 -0.0 -10.283357 -5.680286 -4.341821 11.028275 -11.302379 -2.37264 -1.384275 -14.238571 -6.320122 -0.625431 -26.924202 -3.827636 13.30952 -64.046303 -12.136918 -13.708506 -7.36347 -3.720922 18.141127 -14.052711 -3.242688 -7e-06 -18.787264 -1.3e-05 -0.429718 -8.456053 2.555498 0.0 0.0 0.0 -15.923522 -20.094463 -5.473556 30.419188 -7.190784 1.735901 -5e-06 -8.162915 -5e-06 -1.861912 -22.861483 -6.16797 -0.0 -3e-06 -1e-06 158.693726 4.789999 1.959015 12.891634 -0.006451 0.057514 -80.11525 -7.736722 -2.977182 -8.938074 1.830454 2.036451 -0.999998 0.0 0.0 2.76547 -6.690769 -6.218276 14.911777 -0.20696 0.435733 -86.190735 -7.107553 -4.474579 -6.468133 0.436016 1.563484 -1.000003 1e-06 0.0 
0.0 0.0 0.0 0.0 -0.0 0.0 -2.311269 98.641418 15.671247 94.068237 -0.517966 86.543968 4.225281 1.704248 0.97026 -9.487479 0.523116 2.586376 19.209385 0.055776 1.097721 19.827364 -2.014697 2.351661 -2.6864 -0.836392 -0.847761 -39.541607 -3.485614 0.277894 6e-06 0.0 -0.0 -0.044933 0.011235 -0.016979 -0.123104 -0.092724 -0.033503 -0.104784 0.102342 -0.001496 -120.817566 -65.282265 141.511292 23.368355 -52.126534 8.644166 50.028019 -0.138245 0.402205 5.274152 -3.397422 24.715696 17.636726 -26.322844 52.411331 -19.466614 -14.395578 29.410406 6e-06 -8.774833 -1.7e-05 21.388004 -21.80064 9.153626 -0.609782 -1.795651 -3.889333 -4.807102 -11.046817 -2.937852 -1.2e-05 -20.976057 3e-05 -5.019996 -25.033646 -4.031887 7e-06 -3e-06 2e-06 -10.634549 -5.686975 -3.565602 10.573263 -17.922962 -3.113863 -9e-06 -13.821239 2.3e-05 -0.501818 -31.181644 -4.026984 -36.853657 -70.572067 35.210197 -13.98273 -7.150203 -2.875058 13.772732 -8.40149 -3.218217 0.347694 -34.211651 0.771726 -0.963063 -17.733465 2.621072 -0.0 -2e-06 1e-06 -17.346447 -20.095228 -4.201795 21.757574 -1.638375 3.866464 -1e-06 -6.338837 1.4e-05 -1.697612 -22.591829 -6.194017 -0.0 -5e-06 3e-06 172.375092 -83.211723 17.873144 26.760839 -39.679203 -12.362364 115.449936 -2.639645 0.329553 50.998505 11.150382 44.145088 22.182171 -20.375963 49.933544 -16.701866 -16.74357 28.476671 -1.2e-05 -12.690647 -3e-06 26.67923 -17.746826 1.477693 -0.105922 -1.51386 -4.275897 -5.039053 -5.612882 -2.953576 1.5e-05 -11.020568 -8e-06 -6.111296 -15.895425 -3.840529 -0.0 2e-06 -1e-06 -10.283395 -5.6803 -4.34186 11.028331 -11.302434 -2.372642 -1.384259 -14.238637 -6.320173 -0.625389 -26.924387 -3.827652 15.501649 -64.703606 -13.372123 -13.708553 -7.363487 -3.720965 18.141205 -14.052778 -3.242687 2.3e-05 -18.787352 0.0 -0.429711 -8.456102 2.555538 1e-06 -0.0 -0.0 -15.923567 -20.094522 -5.473623 30.4193 -7.190857 1.735934 8e-06 -8.162962 5e-06 -1.861879 -22.861624 -6.167984 -1e-06 -2e-06 -1e-06 157.121994 5.362431 3.316379 10.035603 -0.011612 0.151781 -79.372574 -7.491004 -3.033899 -9.180617 1.925645 2.014362 -0.999997 -0.0 0.0 3.100996 -7.139453 -6.272543 15.952562 -0.222534 0.448636 -87.565819 -6.287327 -4.896187 -6.656084 0.407934 1.548308 -1.000002 -0.0 -0.0 
0.0 0.0 0.0 0.0 -0.0 0.0 -2.141734 98.065163 18.175852 94.249649 -1.134446 86.603493 4.369287 1.532206 1.054049 -9.409545 0.508768 2.837404 19.430176 -0.079916 1.201778 18.044121 -2.682784 2.436195 -2.693456 -0.828575 -0.525047 -39.770721 -3.403646 0.551275 7e-06 -0.0 -1e-06 -0.045764 0.006469 -0.037498 -0.087045 -0.100849 -0.050634 -0.076261 0.10026 -0.022706 -122.357674 -65.084221 143.019089 23.338831 -50.650745 9.097098 48.430454 -0.093961 0.415625 5.875906 -4.660008 25.680328 17.636621 -26.322813 52.411308 -19.466816 -14.395667 29.410566 -1.8e-05 -8.774869 1.1e-05 21.486197 -21.778072 9.718932 -0.609773 -1.79566 -3.88934 -4.807088 -11.046866 -2.937865 3.5e-05 -20.976191 -9e-06 -5.019965 -25.033834 -4.031895 4e-06 0.0 2e-06 -10.63455 -5.686986 -3.565592 10.573342 -17.923067 -3.113938 2.3e-05 -13.821327 -3e-06 -0.501719 -31.181921 -4.027046 -39.875645 -71.212738 38.894245 -13.982739 -7.150217 -2.875043 13.772794 -8.401552 -3.218278 0.347796 -34.211884 0.771645 -0.963016 -17.733587 2.621064 -2e-06 -2e-06 -2e-06 -17.346443 -20.095282 -4.201787 21.757637 -1.638402 3.866411 8e-06 -6.338874 -3e-06 -1.697539 -22.592016 -6.194075 1e-06 -6e-06 2e-06 173.890747 -83.911697 16.835186 27.426867 -40.950878 -10.558248 107.626503 -2.490559 0.020535 55.25695 10.63085 47.393669 22.182138 -20.375872 49.93338 -16.701784 -16.743481 28.476534 1.1e-05 -12.690591 -1.1e-05 27.137146 -18.646059 1.612116 -0.105926 -1.513858 -4.275882 -5.039049 -5.612884 -2.953565 -6e-06 -11.020538 -1.3e-05 -6.111305 -15.895389 -3.840514 -1e-06 -2e-06 0.0 -10.283376 -5.680304 -4.341847 11.028271 -11.302396 -2.372626 -1.384282 -14.238602 -6.320146 -0.625438 -26.924257 -3.827657 16.896368 -65.338493 -14.379186 -13.708529 -7.363491 -3.720953 18.141115 -14.052731 -3.242662 -6e-06 -18.787291 -1.7e-05 -0.429718 -8.456063 2.555508 1e-06 0.0 0.0 -15.923554 -20.094515 -5.4736 30.419176 -7.190799 1.735958 -3e-06 -8.16293 -6e-06 -1.861895 -22.861528 -6.167998 0.0 -2e-06 -0.0 155.037476 5.942535 3.874867 9.329518 -0.023679 0.192194 -78.888184 -7.445875 -3.209616 -9.372162 1.993582 2.001539 -1.000005 0.0 -0.0 3.627501 -7.591864 -6.59362 16.956293 -0.233023 0.43913 -88.979523 -5.180298 -5.509403 -6.902624 0.382475 1.531958 -1.000005 2e-06 0.0 
